<svg xmlns="http://www.w3.org/2000/svg" xmlns:xlink="http://www.w3.org/1999/xlink" width="18" height="31" viewBox="0 0 18 31"><defs><path id="45dka" d="M825.43 3058h-3.6c-4.04 0-6.65 2.7-6.65 6.89v3.18h-3.61a.57.57 0 0 0-.57.57v4.6c0 .32.25.57.57.57h3.61v11.62c0 .31.26.57.57.57h4.72c.31 0 .56-.26.56-.57v-11.62h4.23c.32 0 .57-.25.57-.57v-4.6c0-.15-.06-.3-.16-.4a.56.56 0 0 0-.4-.17h-4.24v-2.7c0-1.3.31-1.95 1.98-1.95h2.42c.32 0 .57-.25.57-.57v-4.27a.57.57 0 0 0-.57-.58z"/></defs><g><g transform="translate(-809 -3056)"><use fill="#30333c" xlink:href="#45dka"/></g></g></svg>