<svg xmlns="http://www.w3.org/2000/svg" xmlns:xlink="http://www.w3.org/1999/xlink" width="87" height="85" viewBox="0 0 87 85"><defs><path id="tigga" d="M571.33 865.5l-2.41-2.39a1.29 1.29 0 0 1 0-1.84c.51-.5 1.34-.5 1.86 0l2.4 2.38c.52.51.52 1.33 0 1.84a1.32 1.32 0 0 1-1.85 0zm-6.55-.75l4.89 4.83c.51.51.51 1.34 0 1.84a1.32 1.32 0 0 1-1.86 0l-4.9-4.83a1.29 1.29 0 0 1 0-1.84c.52-.5 1.35-.5 1.87 0zm3.8 12.82c.74 0 1.33.59 1.33 1.3 0 .72-.6 1.3-1.32 1.3a1.3 1.3 0 0 1-1.32-1.3c0-.71.6-1.3 1.32-1.3zm-1.22 4.95c.73 0 1.32.59 1.32 1.3 0 .72-.6 1.3-1.32 1.3a1.3 1.3 0 0 1-1.31-1.3c0-.71.58-1.3 1.31-1.3zm48.22-53a1.32 1.32 0 0 1-1.86 0l-.78-.76-.8 1.41 1.31 1.3c.52.5.52 1.33 0 1.84a1.32 1.32 0 0 1-1.86 0l-.77-.77-.8 1.41 1.3 1.29c.51.5.51 1.33 0 1.84a1.32 1.32 0 0 1-1.86 0l-.82-.8a3.81 3.81 0 0 1-2.96 1.37c-.83 0-1.61-.26-2.27-.74l-17.3 17.92c.02.93-.15 1.86-.52 2.71l-17.44 40.64a4.7 4.7 0 0 1-8.97-2.25l2.01-20.59a2 2 0 0 0-.59-1.63 2.06 2.06 0 0 0-1.65-.58l-10.76 1.02a1.31 1.31 0 0 1-1.43-1.17 1.3 1.3 0 0 1 1.18-1.42l10.76-1.02a4.7 4.7 0 0 1 3.76 1.33c1 .98 1.49 2.34 1.35 3.72l-2 20.59a2 2 0 0 0 .59 1.63 2.07 2.07 0 0 0 3.33-.64l16.4-38.21-3.25 3.36c-.25.25-.58.4-.94.4h-.01c-.35 0-.69-.13-.93-.38l-4.9-4.83a1.3 1.3 0 0 1 .03-1.86l3.4-3.21-38.66 16.2c-.24.1-.46.25-.64.44-.8.79-.8 2.07 0 2.86.43.43 1.03.64 1.65.58l4.82-.46.25 2.6-4.07.38-.76.06v.01a4.78 4.78 0 0 1-3.76-1.33 4.6 4.6 0 0 1 1.48-7.53l41.12-17.24c.87-.36 1.8-.53 2.74-.51l18.13-17.1a3.76 3.76 0 0 1 .65-5.17l-.81-.8a1.29 1.29 0 0 1 0-1.85c.51-.5 1.34-.5 1.86 0l1.3 1.29 1.43-.79-.78-.77a1.29 1.29 0 0 1 0-1.84c.51-.5 1.35-.5 1.86 0l1.3 1.3 1.44-.79-.78-.77a1.29 1.29 0 0 1 0-1.84c.52-.5 1.35-.5 1.86 0l1.31 1.3 1.3-.71a3.88 3.88 0 0 1 4.57.63 3.78 3.78 0 0 1 .65 4.53l-.72 1.28 1.3 1.29c.52.5.52 1.33 0 1.84zm-14.06 5.59l-1.86-1.84-24.74 23.34 2.98 2.95zm10.96-12.68a1.2 1.2 0 0 0-1.44-.2l-9.83 5.4-.87.48a1.18 1.18 0 0 0-.27 1.89l4.76 4.7a1.2 1.2 0 0 0 1.7 0c.09-.08.15-.17.2-.26l.5-.87 5.46-9.72c.26-.46.17-1.04-.2-1.42z"/></defs><g><g transform="translate(-531 -817)"><use fill="#2a333c" xlink:href="#tigga"/></g></g></svg>