<svg xmlns="http://www.w3.org/2000/svg" xmlns:xlink="http://www.w3.org/1999/xlink" width="102" height="97" viewBox="0 0 102 97"><defs><path id="ewqua" d="M831.37 857.52c0 9.36-7.72 16.98-17.22 16.98s-17.23-7.62-17.23-16.98c0-9.37 7.72-16.99 17.23-16.99 3.87 0 7.53 1.24 10.58 3.58l-1.8 2.29a14.28 14.28 0 0 0-8.79-2.97 14.2 14.2 0 0 0-14.28 14.09 14.2 14.2 0 0 0 14.28 14.08 14.2 14.2 0 0 0 14.3-14.08c0-3.2-1.06-6.2-3.06-8.7l2.31-1.8a16.66 16.66 0 0 1 3.68 10.5zm-11.87 0c0 2.9-2.4 5.27-5.36 5.27a5.32 5.32 0 0 1-5.35-5.27c0-2.91 2.4-5.28 5.35-5.28a5.32 5.32 0 0 1 5.36 5.28zm-2.94 0a2.4 2.4 0 0 0-2.42-2.38 2.4 2.4 0 0 0-2.4 2.38 2.4 2.4 0 0 0 2.4 2.37 2.4 2.4 0 0 0 2.42-2.37zm52.44 1.9v30.41c0 10.02-8.27 18.17-18.43 18.17-7.72 0-14.35-4.7-17.08-11.36a44.8 44.8 0 0 1-19.35 4.4 44.18 44.18 0 0 1-31.21-12.75A42.92 42.92 0 0 1 770 857.52c0-11.63 4.6-22.56 12.93-30.78A44.18 44.18 0 0 1 814.14 814c20.7 0 38.58 14.2 43.07 33.95h.14a4.83 4.83 0 0 1 4.87 4.79v2.28a4.83 4.83 0 0 1 6.78 4.4zm-32 4.13c.69 0 1.34.14 1.93.39v-8.97a4.83 4.83 0 0 1 6.78-4.4v-.06a4.83 4.83 0 0 1 5.19-4.78h.08a4.88 4.88 0 0 1 .63.1l.08.01.28.08h.02a4.86 4.86 0 0 1 .62.24l.04.01a4.8 4.8 0 0 1 .56.32l.04.02.24.17.07.05.2.16.04.03.18.17c-4.74-17.66-21.04-30.2-39.84-30.2-22.72 0-41.2 18.23-41.2 40.63 0 22.4 18.48 40.61 41.2 40.61a41.8 41.8 0 0 0 18.46-4.29c-.12-.49-.2-.99-.28-1.49a17.5 17.5 0 0 1-.06-.48v-.04l-.05-.43v-.07l-.03-.4v-.1l-.02-.4v-.1l-.02-.5v-2.52a35.32 35.32 0 0 1-18 4.88c-19.39 0-35.17-15.56-35.17-34.67 0-19.12 15.78-34.68 35.17-34.68v2.9c-17.77 0-32.23 14.26-32.23 31.78 0 17.52 14.46 31.77 32.23 31.77 6.47 0 12.68-1.87 18-5.41v-15.54c0-2.64 2.19-4.8 4.87-4.8zm29.06 26.28v-30.4c0-1.05-.86-1.9-1.92-1.9s-1.92.85-1.92 1.9v16.25h-2.94v-22.94a1.91 1.91 0 0 0-2.94-1.61 1.96 1.96 0 0 0-.37.3l-.07.07a1.87 1.87 0 0 0-.38.67v.03a1.91 1.91 0 0 0-.09.54v20.7h-2.94v-22.93c0-1.05-.86-1.9-1.92-1.9s-1.92.85-1.92 1.9v25.17h-2.94v-20.72c0-1.04-.86-1.89-1.92-1.89s-1.92.85-1.92 1.9v28.51h-2.94v-15.14c0-1.05-.86-1.9-1.92-1.9s-1.93.85-1.93 1.9v21.5l.02.69.01.21.04.5.02.21.08.62.05.3a15.29 15.29 0 0 0 .33 1.48 15.48 15.48 0 0 0 14.94 11.25 15.4 15.4 0 0 0 15.49-15.27zm-75.18-32.31c0 12.64 10.44 22.93 23.26 22.93v2.9c-14.44 0-26.2-11.6-26.2-25.83 0-14.25 11.76-25.83 26.2-25.83v2.9c-12.82 0-23.26 10.28-23.26 22.93z"/></defs><g><g transform="translate(-768 -812)"><use fill="#2a333c" xlink:href="#ewqua"/></g></g></svg>