<svg xmlns="http://www.w3.org/2000/svg" xmlns:xlink="http://www.w3.org/1999/xlink" width="74" height="74" viewBox="0 0 74 74"><defs><path id="olx9a" d="M371 1027.52l-.43 5.35a2.34 2.34 0 0 1-.68 1.47l-.63.63s.77.77.03 1.51c-.73.74-1.5-.04-1.5-.04l-.78.78s.84.71.03 1.51c-.8.8-1.5-.03-1.5-.03l-.77.76c-.42.43-1 .67-1.6.68l-2.9.06-7.32 8.38a18.4 18.4 0 0 1 3.06 9.05c.14 2.26-.16 4.46-.9 6.52-.77 2.2-1.99 4.14-3.62 5.77a17.64 17.64 0 0 1-5.12 3.34c-.15.07-1.26.48-1.43 2.79-.38 5.1-2.2 9.84-5.67 13.3a19.45 19.45 0 0 1-7.26 4.56c-3.49 1.25-7.78 1.12-8.27 1.09a24.25 24.25 0 0 1-15.5-7.2 24.28 24.28 0 0 1-7.2-15.5c-.18-2.88.19-5.67 1.1-8.28.96-2.77 2.5-5.22 4.55-7.27a19.7 19.7 0 0 1 13.25-5.67c2.05-.19 2.58-.94 2.64-1.04.34-.83 1.5-3.48 3.53-5.52a15.3 15.3 0 0 1 5.76-3.63 1.04 1.04 0 1 1 .7 1.97c-1.9.67-3.58 1.72-4.99 3.13a17.12 17.12 0 0 0-3.08 4.86c-.9 2.35-4.45 2.3-4.45 2.3-4.58.18-8.8 1.98-11.9 5.07a17.02 17.02 0 0 0-4.05 6.48 18.78 18.78 0 0 0-.98 7.46 22.2 22.2 0 0 0 6.6 14.17c3.9 3.9 8.93 6.25 14.15 6.6 2.6.16 5.1-.17 7.46-.99a17 17 0 0 0 6.47-4.05c3.1-3.1 4.9-7.33 5.07-11.9.13-3.87 2.45-4.53 2.63-4.62.88-.4 2.96-1.36 4.52-2.92a13.24 13.24 0 0 0 3.14-5c.63-1.8.9-3.71.78-5.7-.24-3.97-2-7.78-4.94-10.73a16.67 16.67 0 0 0-9.37-4.8 1.04 1.04 0 0 1 .31-2.06c2.69.4 5.23 1.4 7.5 2.9l8.37-7.33.06-2.9c.01-.6.25-1.17.68-1.6l.76-.76s-.78-.77-.03-1.51c.74-.74 1.5.04 1.5.04l.78-.78s-.81-.73-.03-1.51 1.5.03 1.5.03l.64-.63c.4-.4.92-.64 1.47-.68l5.34-.42a2.32 2.32 0 0 1 2.51 2.51zm-12.62 11.7l-1.58-1.6-7.66 6.72c1.44.98 2.17 2.1 2.56 2.56zm10.54-11.86a.26.26 0 0 0-.07-.2c-.05-.05-.2-.08-.2-.08s-5.47.45-5.5.5l-5.13 5.12c-.05.05-.11 3.1-.06 3.15l2.2 2.2c.05.05.12.08.18.08 0 0 2.92-.1 2.96-.14l5.12-5.13c.05-.04.5-5.5.5-5.5zm-28.11 33.86a5.97 5.97 0 0 1-6 6.02 5.97 5.97 0 0 1-4.25-10.26 5.97 5.97 0 0 1 8.49 0 5.97 5.97 0 0 1 1.76 4.24zm-2.08 0a3.9 3.9 0 0 0-3.93-3.93 3.9 3.9 0 0 0-3.93 3.93 3.9 3.9 0 0 0 3.93 3.94 3.9 3.9 0 0 0 3.93-3.94zm-1.04-20.24c.02.57-.42 1.06-1 1.08-.4.02-.81.05-1.21.1-.04.01-1.05.16-1.16-.9-.06-.57.33-1.09.9-1.16.45-.06.92-.1 1.38-.12.58-.02 1.06.42 1.09 1zm-9.28 41.76a3.12 3.12 0 0 1-3.13 3.14c-.84 0-1.63-.33-2.22-.92l-11.98-11.99a3.12 3.12 0 0 1 0-4.43 3.12 3.12 0 0 1 4.43 0l1.65 1.65 4.8-4.8a1.04 1.04 0 1 1 1.47 1.47l-4.8 4.8 2.14 2.14 3.11-3.12a1.04 1.04 0 1 1 1.47 1.47l-3.11 3.12 2.13 2.13 1.39-1.38a1.04 1.04 0 1 1 1.47 1.47l-1.39 1.38 1.65 1.65c.6.6.92 1.39.92 2.22zm-2.08 0c0-.28-.1-.54-.3-.74l-11.99-12a1.05 1.05 0 0 0-1.49 0 1.05 1.05 0 0 0 0 1.5l11.98 12a1.05 1.05 0 0 0 1.5 0c.2-.2.3-.47.3-.76zm37.9-51.93l-.6.61a.56.56 0 0 1-.79 0l-.6-.6a.56.56 0 0 1 0-.8l.6-.6a.56.56 0 0 1 .79 0l.6.6c.22.22.22.58 0 .8zm2.35 2.35l-.6.6a.56.56 0 0 1-.79 0l-.6-.6a.56.56 0 0 1 0-.78l.6-.61a.56.56 0 0 1 .79 0l.6.6c.22.22.22.58 0 .8zm-2.25 2.25l-.6.61a.56.56 0 0 1-.79 0l-.6-.6a.56.56 0 0 1 0-.8l.6-.6a.56.56 0 0 1 .79 0l.6.6c.22.22.22.58 0 .8zm-2.34-2.35l-.61.61a.56.56 0 0 1-.79 0l-.6-.6a.56.56 0 0 1 0-.79l.6-.6a.56.56 0 0 1 .79 0l.6.6c.22.22.22.57 0 .78zm-19.48 35.88a10.82 10.82 0 0 1-7.7 3.19 10.92 10.92 0 0 1 0-21.8c2.9 0 5.64 1.12 7.7 3.18a10.92 10.92 0 0 1 0 15.43zm-1.47-13.96a8.76 8.76 0 0 0-6.24-2.58 8.84 8.84 0 0 0 0 17.64 8.84 8.84 0 0 0 6.24-15.06z"/></defs><g><g transform="translate(-299 -1023)"><use fill="#2a333c" xlink:href="#olx9a"/></g></g></svg>