<svg xmlns="http://www.w3.org/2000/svg" xmlns:xlink="http://www.w3.org/1999/xlink" width="82" height="84" viewBox="0 0 82 84"><defs><path id="osz4a" d="M1094.87 1048.34c-3.66 6.6-13.3 13.97-21.22 14.56-1.09 2.99-3.06 3.47-4.95 3.66-1.41 3.21-3.08 6.81-4.8 10.43a651.27 651.27 0 0 1 10.6 17.17c1.93 3.64-.54 6.33-2.15 7.2a5.43 5.43 0 0 1-7.3-2.12c-.37-.66-2.84-5.53-6.05-12.08a549.94 549.94 0 0 1-6.05 12.08 5.4 5.4 0 0 1-7.3 2.11c-1.26-.68-4.37-3.18-2.14-7.19.18-.33.92-1.56 1.9-3.2a1.2 1.2 0 0 1 1.64-.4c.57.34.75 1.06.41 1.61a213.01 213.01 0 0 0-1.86 3.12c-1.18 2.02.49 3.62 1.2 4 1.44.78 3.27.25 4.06-1.17.79-1.42 9.8-19.34 15.37-31.83-.31-.1-.94-.46-1.74-.94a687.59 687.59 0 0 0-12.72 19.81c-.22.37-1.07.77-1.64.4-.54-.37-.73-1.07-.4-1.62 1.14-1.83 2.66-4.26 4.37-6.95-1.88-3.97-3.5-7.47-4.8-10.43-1.89-.19-4.05-.9-4.94-3.65-2.83-.2-5.98-1.27-9.3-3.16-4.99-2.85-9.67-7.33-11.93-11.41a16.9 16.9 0 0 1-1.77-11.68 1.2 1.2 0 0 1 2.33.48c-.36 1.72-.4 3.48-.14 5.2a36.14 36.14 0 0 0 13.74-4.21 35.6 35.6 0 0 0 11.02-9.1 15.23 15.23 0 0 0-17.1-1.87 14.76 14.76 0 0 0-6.44 6.77 1.2 1.2 0 0 1-1.58.58c-.6-.27-.86-.97-.59-1.56a17.1 17.1 0 0 1 7.46-7.85 17.56 17.56 0 0 1 23.61 6.82c2.26 4.08 3.56 10.38 3.3 16.05-.18 3.78-.98 6.96-2.33 9.41 2.3 2.67.63 5.74.46 6.07a387.1 387.1 0 0 1 3.9 5.9c1.33-2.04 2.65-4.05 3.9-5.9-.16-.33-1.57-2.98.46-6.07-1.35-2.45-2.15-5.63-2.33-9.4-.26-5.68 1.04-11.98 3.3-16.06a17.45 17.45 0 0 1 15.29-8.92c2.89 0 5.77.72 8.32 2.1a17.01 17.01 0 0 1 6.93 23.24zm-53.18-2.29a35.4 35.4 0 0 0 11.37-9.54c-.42-1.28-1.37-4.2-3.07-5.78a38.07 38.07 0 0 1-11.56 9.46 38.64 38.64 0 0 1-14.33 4.45c.68 2.37 2.41 4.63 3.27 5.67a35.97 35.97 0 0 0 14.32-4.26zm-6.06 11.28a36.7 36.7 0 0 0 10.25-3.7 36.27 36.27 0 0 0 8.72-6.49c.05-2.62-.22-5.32-.77-7.82a38.28 38.28 0 0 1-11 8.8 38.81 38.81 0 0 1-13.46 4.35c1.83 1.8 4 3.5 6.26 4.86zm13.62 2.36c2.84-1.52 4.43-4.97 5.05-9.02a39.61 39.61 0 0 1-15.5 8.33c3.8 1.67 7.6 2.22 10.45.7zm2.3 4.14a3.61 3.61 0 0 0 1.58-4.28 9.83 9.83 0 0 1-6.1 3.28 3.58 3.58 0 0 0 4.52 1zm6.04 7.69a416.76 416.76 0 0 0-4.07-6.17c-.26.2-.74.6-1.74.94 1.08 2.43 2.36 5.22 3.82 8.32l1.99-3.09zm5.11 8l-2.38 4.93a628.75 628.75 0 0 0 6.82 13.67 3.03 3.03 0 0 0 4.07 1.17c.7-.38 2.15-2.24 1.2-4-.4-.73-4.62-7.7-9.7-15.77zm8.27-16.7a9.93 9.93 0 0 1-3.36-1.07 9.82 9.82 0 0 1-2.73-2.2c-.9 2.22.76 3.84 1.58 4.28 1.54.84 3.47.38 4.51-1zm8.25-3.82a39.6 39.6 0 0 1-15.53-8.35c.68 4.42 2.46 7.64 5.06 9.04 1.12.6 2.42.9 3.88.9 2.07 0 4.33-.6 6.59-1.6zm9.43-6.53a38.82 38.82 0 0 1-13.47-4.36 38.28 38.28 0 0 1-11-8.79c-.56 2.5-.84 5.2-.79 7.8a36.27 36.27 0 0 0 8.73 6.5 36.69 36.69 0 0 0 10.27 3.72 34.34 34.34 0 0 0 6.26-4.87zm5.25-7.83a38.63 38.63 0 0 1-14.33-4.45 38.06 38.06 0 0 1-11.55-9.46c-1.4 1.21-2.66 4.5-3.08 5.77a35.41 35.41 0 0 0 11.38 9.55 35.97 35.97 0 0 0 14.31 4.26c.86-1.04 2.64-3.3 3.27-5.67zm-7.1-17.48a15.22 15.22 0 0 0-17.11 1.87 35.59 35.59 0 0 0 11.02 9.1 36.13 36.13 0 0 0 13.74 4.2 14.74 14.74 0 0 0-7.65-15.17zm-36.86 60.97l-.64 1.03c-.22.37-.92.85-1.63.4a1.17 1.17 0 0 1-.4-1.61l.63-1.04a1.2 1.2 0 0 1 1.64-.4c.56.34.74 1.06.4 1.62zm42.3-48.53a1.18 1.18 0 0 1-1.2 1.15s-1.16 0-1.2-1.2c0-.3 0-.6-.02-.9-.04-.65.45-1.2 1.1-1.25.67-.05 1.23.44 1.28 1.08.03.37.04.75.03 1.12zm-1.55-3.24c-.65.28-1.36-.2-1.54-.67a10.03 10.03 0 0 0-1.96-3.13c-.45-.48-.41-1.22.08-1.66a1.2 1.2 0 0 1 1.68.08 12.35 12.35 0 0 1 2.42 3.86c.24.6-.07 1.27-.68 1.52z"/></defs><g><g transform="translate(-1019 -1019)"><use fill="#2a333c" xlink:href="#osz4a"/></g></g></svg>