<svg xmlns="http://www.w3.org/2000/svg" xmlns:xlink="http://www.w3.org/1999/xlink" width="68" height="70" viewBox="0 0 68 70"><defs><path id="5ep0a" d="M1076.82 874.84c-6.7 0-12.17-5.5-12.17-12.25 0-6.76 5.46-12.25 12.17-12.25 3.41 0 6.5 1.41 8.7 3.69v-17.27l-36.17 8.36v26.63c0 6.75-5.46 12.25-12.17 12.25-6.72 0-12.18-5.5-12.18-12.25 0-6.76 5.46-12.26 12.18-12.26 3.4 0 6.48 1.42 8.7 3.7V827.9c0-.81.55-1.52 1.34-1.7l39.65-9.16a1.73 1.73 0 0 1 2.13 1.7v43.85c0 6.76-5.46 12.25-12.18 12.25zM1037.18 863c-4.8 0-8.7 3.93-8.7 8.76 0 4.82 3.9 8.75 8.7 8.75 4.8 0 8.7-3.93 8.7-8.75 0-4.83-3.9-8.76-8.7-8.76zm48.34-42.05l-36.17 8.36v12.23l36.17-8.36zm-8.7 32.9c-4.8 0-8.7 3.92-8.7 8.75s3.9 8.76 8.7 8.76c4.8 0 8.7-3.93 8.7-8.76s-3.9-8.75-8.7-8.75zM1077 868a5 5 0 1 1 0-10 5 5 0 0 1 0 10zm-40 9a5 5 0 1 1 0-10 5 5 0 0 1 0 10z"/></defs><g><g transform="translate(-1023 -815)"><use fill="#2a333c" xlink:href="#5ep0a"/></g></g></svg>