<svg xmlns="http://www.w3.org/2000/svg" xmlns:xlink="http://www.w3.org/1999/xlink" width="71" height="74" viewBox="0 0 71 74"><defs><path id="shp1a" d="M373 822.46v58.3c0 .68-.55 1.24-1.24 1.24h-64.52c-.69 0-1.24-.56-1.24-1.24v-20.2c0-.33.13-.64.36-.88l16.1-16.3.03-.03a1.18 1.18 0 0 1 .3-.2l.05-.03.04-.02a1.33 1.33 0 0 1 .52-.08 1.33 1.33 0 0 1 .36.07l.04.02.04.01.08.05.08.04.07.05.07.06.03.02 15.17 13.95 15.26-17.27 16.24-18.38a1.23 1.23 0 0 1 2.16.82zm-34.8 57.06V859.6l-13.63-12.53v12.94a1.24 1.24 0 1 1-2.47 0v-12.75l-13.63 13.8v18.45h13.63v-14.53a1.24 1.24 0 1 1 2.47 0v14.53zm32.33-53.79l-13.77 15.58v25.37a1.24 1.24 0 1 1-2.47 0v-22.57l-13.62 15.42v19.99h13.62v-7.87a1.24 1.24 0 1 1 2.47 0v7.87h13.77zm-5.51-8.81c0 .68-.55 1.24-1.23 1.25-.69 0-1.24-.55-1.24-1.24l-.01-1.42-22.19 25.08a1.23 1.23 0 0 1-1.75.09l-15.22-14-15.27 15.45a1.23 1.23 0 0 1-1.74.01 1.25 1.25 0 0 1-.01-1.76l16.1-16.3c.46-.47 1.22-.49 1.7-.04L339.35 838l21.68-24.5-1.9-.02a1.24 1.24 0 0 1 0-2.48l4.64.03h.02a1.35 1.35 0 0 1 .12 0l.07.02h.05l.06.03.06.01.06.02.05.02.06.03.05.03a1.11 1.11 0 0 1 .1.06l.05.04.05.04.01.01.03.03a1.46 1.46 0 0 1 .23.29 1.15 1.15 0 0 1 .11.27 1.09 1.09 0 0 1 .05.3v.03z"/></defs><g><g transform="translate(-304 -809)"><use fill="#2a333c" xlink:href="#shp1a"/></g></g></svg>