<svg xmlns="http://www.w3.org/2000/svg" xmlns:xlink="http://www.w3.org/1999/xlink" width="71" height="79" viewBox="0 0 71 79"><defs><path id="j98ra" d="M854 1056.1c0 .56-.46 1.02-1.03 1.02h-1.29c-1.58 0-3.03.82-4.57 1.7l-.25.13c-3.18 1.8-5.28 2.99-6.67 5.48-1.48 2.66-2.11 6.82-2.11 13.9v2.97c0 8.1-6.63 14.7-14.76 14.7a14.74 14.74 0 0 1-14.75-15.14l1.47-51.66c0-.39-.18-.79-.57-1.19a4.37 4.37 0 0 0-2.46-1.26h-3.8c-.18 0-.35-.05-.5-.13h-1.43c-.1.47-.51.82-1.01.82h-13.24a1.03 1.03 0 0 1-.74-1.74l5.28-5.4c.2-.19.46-.3.74-.3h7.96c.41 0 .77.25.93.6h1.8l.2-.02h3.97c2.07 0 4.37.96 6.15 2.58a9.02 9.02 0 0 1 3.11 6.36l.38 12.32a3.68 3.68 0 0 1 .23 7.06l.05 1.62c1.45.5 2.5 1.88 2.5 3.48 0 1.51-.94 2.84-2.29 3.4l.06 1.82a3.66 3.66 0 0 1 .2 6.65l.07 2.08a3.68 3.68 0 1 1 .2 6.37l.07 2.39a3.65 3.65 0 0 1 .5 5.77 3.02 3.02 0 0 0 5.67-1.42v-14.63a27.7 27.7 0 0 1 9.55-20.92 6.99 6.99 0 0 0 2.4-5.28c0-.41.24-.79.63-.95.39-.16.83-.07 1.12.23l15.88 15.82c.21.18.35.46.35.77zm-39.63-7.35a3.6 3.6 0 0 1-.18-.1v2.09l.23-.11.02-.01.26-.1.04-.01.26-.08h.02l-.05-1.47a3.61 3.61 0 0 1-.26-.08l-.05-.02a3.51 3.51 0 0 1-.24-.1l-.05-.01zm-.06 8.57a3.7 3.7 0 0 1-.12-.06v2.07l.07-.03.06-.03a6.2 6.2 0 0 1 .25-.1l.07-.03.11-.04.05-.02.17-.04.05-.02.12-.02.07-.02.08-.01-.05-1.35-.02-.01-.28-.06-.04-.01-.28-.1h-.01l-.27-.1-.03-.02zm-.05 8.57a2.73 2.73 0 0 1-.07-.04v2.08l.08-.04a3.42 3.42 0 0 1 .16-.07l.07-.03a4.89 4.89 0 0 1 .42-.14l.08-.03.1-.02.08-.01.1-.02.08-.01a3.29 3.29 0 0 1 .18-.03h.01l-.04-1.28-.17-.02-.07-.01-.1-.02-.08-.02-.1-.02-.08-.02-.1-.03-.07-.03a3.83 3.83 0 0 1-.48-.2zm1.63 3.68c-.9 0-1.62.73-1.62 1.62a1.63 1.63 0 1 0 2.07-1.56c-.14-.04-.3-.06-.45-.06zm-1.62 6.92l.08-.04.09-.04.07-.03.1-.04a3.62 3.62 0 0 1 .24-.08l.1-.02.08-.03a3.77 3.77 0 0 1 .54-.08l.1-.01h.15l-.04-1.25h-.04l-.09-.01a5.83 5.83 0 0 1-.64-.1l-.08-.02a3.22 3.22 0 0 1-.74-.29v2.08l.08-.04zm0 3.3a1.63 1.63 0 1 0 2.23-1.5 1.64 1.64 0 0 0-2.23 1.5zm3.25-17.2c0-.79-.57-1.46-1.35-1.6l-.17-.01h-.05a1.85 1.85 0 0 0-.2 0h-.06l-.11.02-.04.01-.13.03h-.01c-.19.07-.36.16-.5.28-.02 0-.03.02-.05.03l-.06.06-.06.05-.05.06a1.74 1.74 0 0 0-.27.4l-.04.1-.02.06a1.6 1.6 0 0 0-.03.11l-.02.06-.02.12v.05l-.01.17a1.63 1.63 0 0 0 1.99 1.58h.01a1.61 1.61 0 0 0 1.25-1.58zm0-8.6a1.62 1.62 0 0 0-1.54-1.61h-.09c-.9 0-1.62.72-1.62 1.62a1.63 1.63 0 0 0 3.25 0zm-1.63-10.21h-.02-.03c-.88.03-1.57.74-1.57 1.62 0 .9.73 1.62 1.62 1.62h.06a1.61 1.61 0 0 0 1.57-1.62c0-.9-.73-1.62-1.63-1.62zm-16.66-21.73h-1v3.34h1zm-3.05 0h-1.08v3.34h1.08zm-6.7 3.34h3.56v-3.34h-.3zm11.82-.82h.88v-1.91h-.88zm49.27 30.59l-12.77-12.72a9 9 0 0 1-2.82 4.62 25.64 25.64 0 0 0-8.85 19.37v14.63a5.06 5.06 0 0 1-5.08 5.06 5.1 5.1 0 0 1-4.5-2.72h-.02a3.8 3.8 0 0 1-2.34-.35v2a1.03 1.03 0 0 1-2.06 0v-43.62a1.03 1.03 0 0 1 2.06 0v.7l.02-.01h.01l.23-.1.04-.03.25-.08.01-.01-.38-12.32c-.12-3.85-4.04-6.95-7.2-6.95h-2.93v2.06H807.05c1.07.03 2.76.7 3.92 1.9a3.7 3.7 0 0 1 1.13 2.66l-1.47 51.67v.39a12.69 12.69 0 1 0 25.4-.01v-2.97c-.02-7.46.7-11.91 2.36-14.9 1.66-3 4.22-4.44 7.45-6.26l.25-.15c1.4-.78 2.83-1.6 4.48-1.86zm-12.13-8.6c.37.42.33 1.07-.1 1.44a25.84 25.84 0 0 0-8.25 13.88 1.03 1.03 0 0 1-2.02-.44 27.9 27.9 0 0 1 8.91-14.99 1.03 1.03 0 0 1 1.46.1zm-11 20.8c0-.73.02-1.47.08-2.2a1.03 1.03 0 0 1 2.06.16c-.06.68-.08 1.37-.08 2.05a1.03 1.03 0 0 1-2.07 0zm7.5 4.96a3.86 3.86 0 0 1-7.73 0 3.87 3.87 0 0 1 7.73 0zm-2.06 0a1.8 1.8 0 0 0-3.61 0 1.8 1.8 0 0 0 3.6 0zm2.06 8.27a3.87 3.87 0 0 1-7.73 0 3.86 3.86 0 0 1 7.73 0zm-2.06 0a1.8 1.8 0 0 0-3.61 0 1.8 1.8 0 0 0 3.6 0z"/></defs><g><g transform="translate(-784 -1018)"><use fill="#2a333c" xlink:href="#j98ra"/></g></g></svg>