<svg xmlns="http://www.w3.org/2000/svg" xmlns:xlink="http://www.w3.org/1999/xlink" width="26" height="26" viewBox="0 0 26 26"><defs><path id="k5sfa" d="M991 3065.35v10.3c0 3.5-2.85 6.35-6.35 6.35h-10.3a6.35 6.35 0 0 1-6.35-6.35v-10.3c0-3.5 2.85-6.35 6.35-6.35h10.3c3.5 0 6.35 2.85 6.35 6.35zm-2.04 10.3v-10.3c0-2.38-1.93-4.31-4.3-4.31h-10.31a4.31 4.31 0 0 0-4.31 4.3v10.31c0 2.38 1.93 4.3 4.3 4.3h10.31c2.38 0 4.3-1.92 4.3-4.3zm-3.53-5.15a5.93 5.93 0 1 1-11.87-.01 5.93 5.93 0 0 1 11.87 0zm-2.04 0a3.89 3.89 0 1 0-7.78 0 3.89 3.89 0 0 0 7.78 0zm3.34-7.22a1.5 1.5 0 0 1 0 2.12c-.28.27-.66.44-1.06.44a1.5 1.5 0 0 1-1.5-1.5 1.5 1.5 0 0 1 1.5-1.5c.4 0 .79.16 1.06.44z"/></defs><g><g transform="translate(-966 -3057)"><use fill="#30333c" xlink:href="#k5sfa"/></g></g></svg>