<svg xmlns="http://www.w3.org/2000/svg" xmlns:xlink="http://www.w3.org/1999/xlink" width="26" height="31" viewBox="0 0 26 31"><defs><path id="4496a" d="M1052.99 3073.64c1.36-2.31-.44-2.82-.72-4.49-1.16-6.83 8.24-11.5 13.16-6.73 3.4 3.31 1.16 13.48-4.33 12.42-5.26-1 2.58-9.1-1.62-10.69-3.41-1.3-5.22 3.95-3.6 6.56-.95 4.48-3 8.7-2.17 14.31 2.68-1.86 3.59-5.42 4.33-9.14 1.35.78 2.07 1.6 3.79 1.72 6.33.47 9.88-6.05 9-12.07-.76-5.34-6.32-8.05-12.25-7.42-4.7.5-9.37 4.13-9.56 9.32-.12 3.16.82 5.54 3.97 6.2z"/></defs><g><g transform="translate(-1047 -3056)"><use fill="#30333c" xlink:href="#4496a"/></g></g></svg>