<svg xmlns="http://www.w3.org/2000/svg" xmlns:xlink="http://www.w3.org/1999/xlink" width="27" height="22" viewBox="0 0 27 22"><defs><path id="1va6a" d="M910.48 580.69v16.62c0 .57-.67.89-1.15.55l-6.02-4.02v-9.69l6.02-4.01c.48-.34 1.15-.02 1.15.55zm7.37 16.09a.74.74 0 0 1-1.01 0 .67.67 0 0 1 0-.98 8.8 8.8 0 0 0 0-12.73.68.68 0 0 1 0-.98.74.74 0 0 1 1.01 0 10.14 10.14 0 0 1 0 14.69zm-2.03-1.96a.74.74 0 0 1-1.01 0 .67.67 0 0 1 0-.98 6.09 6.09 0 0 0 0-8.81.67.67 0 0 1 0-.98.74.74 0 0 1 1.01 0 7.44 7.44 0 0 1 0 10.77zm-2.03-1.96a.74.74 0 0 1-1.01 0 .67.67 0 0 1 0-.98 3.38 3.38 0 0 0 0-4.9.67.67 0 0 1 0-.97.74.74 0 0 1 1.02 0 4.73 4.73 0 0 1 0 6.85zm-11.92-8.7v9.68h-2.15a.7.7 0 0 1-.72-.69v-8.3c0-.39.32-.7.72-.7z"/></defs><g><g transform="translate(-897 -578)"><use fill="#fff" xlink:href="#1va6a"/></g></g></svg>