<svg xmlns="http://www.w3.org/2000/svg" xmlns:xlink="http://www.w3.org/1999/xlink" width="21" height="24" viewBox="0 0 21 24"><defs><path id="wuxja" d="M1084.05 595.75a9 9 0 0 1 4.15-15.57v1.85a7.2 7.2 0 0 0-2.71 12.58c.91.69.01 2.49-1.44 1.14zM1099 589a9 9 0 0 1-7.2 8.82v-1.86a7.2 7.2 0 0 0 2.68-12.6c-.88-.67.47-2.02 1.4-1.18A8.97 8.97 0 0 1 1099 589zm-10.78-5.85l-.02-3.6c0-.5.35-.7.77-.44l2.96 1.8c.42.25.42.66 0 .92l-2.93 1.75c-.43.26-.78.06-.78-.43zm3.58 11.7l-.02 3.6c0 .5-.35.7-.78.44l-2.92-1.76c-.43-.25-.43-.67 0-.93l2.95-1.79c.42-.25.77-.06.77.44z"/></defs><g><g transform="translate(-1079 -577)"><use fill="#fff" xlink:href="#wuxja"/></g></g></svg>