<svg xmlns="http://www.w3.org/2000/svg" xmlns:xlink="http://www.w3.org/1999/xlink" width="27" height="22" viewBox="0 0 27 22"><defs><path id="azega" d="M911.34 3063.35c-.95.55-2 .95-3.13 1.16a4.97 4.97 0 0 0-3.6-1.51 4.86 4.86 0 0 0-4.79 5.89 14.1 14.1 0 0 1-10.15-5.01 4.76 4.76 0 0 0 1.52 6.4 5.02 5.02 0 0 1-2.22-.6v.06c0 2.32 1.7 4.26 3.94 4.7a5.1 5.1 0 0 1-2.22.08 4.92 4.92 0 0 0 4.6 3.34 10.05 10.05 0 0 1-7.29 1.98 14.21 14.21 0 0 0 7.55 2.16c9.05 0 14-7.31 14-13.65l-.01-.62a9.77 9.77 0 0 0 2.46-2.48c-.88.38-1.83.64-2.83.75a4.85 4.85 0 0 0 2.17-2.65z"/></defs><g><g transform="translate(-886 -3061)"><use fill="#30333c" xlink:href="#azega"/></g></g></svg>