<svg xmlns="http://www.w3.org/2000/svg" xmlns:xlink="http://www.w3.org/1999/xlink" width="25" height="19" viewBox="0 0 25 19"><defs><path id="xvyoa" d="M1150 3069.03v3.94c0 2.5-.38 3.93-1.27 4.82-.87.86-2.22 1.2-4.65 1.2h-10.16c-5 0-5.92-2.02-5.92-6.02v-3.94c0-2.06 0-3.56.77-4.57.8-1.04 2.28-1.46 5.15-1.46h10.16c2.8 0 4.27.4 5.06 1.37.8.98.86 2.48.86 4.66zm-7.5 1.86a.74.74 0 0 0-.38-.65l-4.61-2.48a.69.69 0 0 0-.7.03.74.74 0 0 0-.34.63v4.97c0 .25.13.49.34.62a.7.7 0 0 0 .7.03l4.61-2.5a.74.74 0 0 0 .38-.65z"/></defs><g><g transform="translate(-1126 -3061)"><use fill="#30333c" xlink:href="#xvyoa"/></g></g></svg>